<svg viewBox="0 0 22 23" xmlns="http://www.w3.org/2000/svg">
<path d="M15.3771 3.57609L18.8222 7.45263C18.9674 7.61594 18.9674 7.8824 18.8222 8.04571L10.4806 17.4319L6.93611 17.8746C6.4625 17.9348 6.06146 17.4835 6.11493 16.9506L6.50833 12.9623L14.85 3.57609C14.9951 3.41277 15.2319 3.41277 15.3771 3.57609ZM21.5646 2.59191L19.7007 0.494627C19.1201 -0.158626 18.1767 -0.158626 17.5924 0.494627L16.2403 2.01602C16.0951 2.17933 16.0951 2.44579 16.2403 2.6091L19.6854 6.48564C19.8306 6.64895 20.0674 6.64895 20.2125 6.48564L21.5646 4.96425C22.1451 4.3067 22.1451 3.24516 21.5646 2.59191V2.59191ZM14.6667 14.8791V19.2541H2.44444V5.50146H11.2215C11.3437 5.50146 11.4583 5.44559 11.5462 5.35104L13.074 3.63196C13.3642 3.30533 13.158 2.75093 12.7493 2.75093H1.83333C0.821181 2.75093 0 3.67494 0 4.81383V19.9418C0 21.0807 0.821181 22.0047 1.83333 22.0047H15.2778C16.2899 22.0047 17.1111 21.0807 17.1111 19.9418V13.16C17.1111 12.7001 16.6184 12.4724 16.3281 12.7947L14.8003 14.5138C14.7163 14.6126 14.6667 14.7416 14.6667 14.8791Z"/>
</svg>