<svg width="200" height="200" viewBox="0 0 200 200" fill="none" xmlns="http://www.w3.org/2000/svg">
<circle cx="100" cy="100" r="100" fill="#EBFF00"/>
<path d="M133.875 59.4804L152.667 80.6251C153.458 81.5159 153.458 82.9693 152.667 83.8601L107.167 135.058L87.8333 137.472C85.25 137.8 83.0625 135.339 83.3542 132.432L85.5 110.678L131 59.4804C131.792 58.5896 133.083 58.5896 133.875 59.4804ZM167.625 54.1121L157.458 42.6724C154.292 39.1092 149.146 39.1092 145.958 42.6724L138.583 50.9709C137.792 51.8617 137.792 53.3151 138.583 54.2059L157.375 75.3507C158.167 76.2415 159.458 76.2415 160.25 75.3507L167.625 67.0522C170.792 63.4655 170.792 57.6753 167.625 54.1121V54.1121ZM130 121.133V144.997H63.3333V69.9824H111.208C111.875 69.9824 112.5 69.6777 112.979 69.1619L121.312 59.7851C122.896 58.0035 121.771 54.9795 119.542 54.9795H60C54.4792 54.9795 50 60.0195 50 66.2317V148.748C50 154.96 54.4792 160 60 160H133.333C138.854 160 143.333 154.96 143.333 148.748V111.756C143.333 109.248 140.646 108.005 139.062 109.764L130.729 119.14C130.271 119.68 130 120.383 130 121.133Z" fill="black"/>
</svg>