<svg viewBox="0 0 22 24" xmlns="http://www.w3.org/2000/svg">
<path d="M20.0724 2.10187C17.3847 -0.826878 13.1257 -0.934691 9.23228 3.30797C5.8545 6.98859 6.61204 6.16359 5.5477 7.32328C2.94981 10.1541 2.52313 14.3934 2.81317 17.2219L10.4805 8.86641C10.7495 8.57344 11.1852 8.57344 11.4538 8.86641C11.7223 9.15938 11.7223 9.63422 11.4538 9.92719L0.302501 22.0795C-0.100546 22.5188 -0.100546 23.2313 0.302501 23.6705C0.705548 24.1097 1.35953 24.1097 1.76258 23.6705L4.60282 20.5753C6.85009 21.3117 11.9883 21.427 15.2088 18H10.9897L17.3306 15.6966C19.4786 13.3561 18.8938 14.0006 19.3205 13.5H15.119L20.7711 11.4469C22.7236 7.95656 22.2454 4.47 20.0724 2.10187V2.10187Z"/>
</svg>